<svg width="100" height="100" viewBox="0 0 100 100" fill="none" xmlns="http://www.w3.org/2000/svg">
  <circle cx="50" cy="50" r="50" fill="#D91E18"/>
  <!-- Elegant Maple Leaf Outline -->
  <path d="M50 22C50 22 51 28 53 32L61 29L58 38L72 38L67 48L82 52L76 62L88 68L71 73L74 84L62 81L58 90L50 86L42 90L38 81L26 84L29 73L12 68L24 62L18 52L33 48L28 38L42 38L39 29L47 32C49 28 50 22 50 22Z" stroke="white" stroke-width="3" stroke-linejoin="round" fill="none"/>
  <path d="M50 86V92" stroke="white" stroke-width="4" stroke-linecap="round"/>
</svg>
